<svg xmlns="http://www.w3.org/2000/svg" viewBox="0 0 1024 1024" fill="none">
  <path
    d="M690 270c28-28 75-28 103 0 28 28 28 75 0 103l-23 23-106-106 26-20Z"
    fill="#f8fafc"
  />
  <path
    d="M606 350c22-22 58-22 80 0l74 74c22 22 22 58 0 80l-20 20-154-154 20-20Z"
    fill="#dc2626"
  />
  <path
    d="M637 223c13-13 35-13 49 0l118 118c14 14 14 36 0 49l-24 24-167-167 24-24Z"
    fill="#dc2626"
  />
  <circle cx="430" cy="594" r="280" fill="#dc2626" />
  <circle cx="430" cy="594" r="212" fill="#ef4444" opacity="0.28" />
  <path
    d="M650 301c19 0 34 15 34 34 0 19-15 34-34 34-19 0-34-15-34-34 0-19 15-34 34-34Zm0-78c16 0 28 13 28 28v18c0 16-12 28-28 28-15 0-28-12-28-28v-18c0-15 13-28 28-28Zm0 190c16 0 28 12 28 28v19c0 15-12 28-28 28-15 0-28-13-28-28v-19c0-16 13-28 28-28Zm112-79c16 0 28 13 28 28 0 16-12 28-28 28h-19c-15 0-28-12-28-28 0-15 13-28 28-28h19Zm-190 0c15 0 28 13 28 28 0 16-13 28-28 28h-19c-16 0-28-12-28-28 0-15 12-28 28-28h19Zm143-64c11-11 29-11 40 0 11 11 11 29 0 40l-13 13c-11 11-29 11-40 0-11-11-11-29 0-40l13-13Zm-134 134c11-11 29-11 40 0 11 11 11 29 0 40l-13 13c-11 11-29 11-40 0-11-11-11-29 0-40l13-13Zm134 53c11-11 29-11 40 0l13 13c11 11 11 29 0 40-11 11-29 11-40 0l-13-13c-11-11-11-29 0-40Zm-134-134c11-11 29-11 40 0l13 13c11 11 11 29 0 40-11 11-29 11-40 0l-13-13c-11-11-11-29 0-40Z"
    fill="#fde68a"
  />
  <path
    d="M289 391c55-32 128-35 188-8 60 27 108 81 128 145-45-40-104-64-169-64-67 0-128 25-174 66 22-58 68-109 127-139Z"
    fill="#fb7185"
    opacity="0.55"
  />
  <path
    d="M291 753c90 52 213 40 291-28 16-14 17-39 3-55-14-15-39-17-55-3-54 48-140 56-203 20-19-11-43-5-54 14-11 19-5 43 18 52Z"
    fill="#7f1d1d"
    opacity="0.45"
  />
</svg>