<svg xmlns="http://www.w3.org/2000/svg" width="32" height="32" viewBox="0 0 256 257">
  <defs>
    <linearGradient id="a" x1="1.95%" x2="100%" y1="0%" y2="100%">
      <stop offset="0%" stop-color="#BD34FE"/>
      <stop offset="100%" stop-color="#41D1FF"/>
    </linearGradient>
    <linearGradient id="b" x1="50%" x2="50%" y1="0%" y2="100%">
      <stop offset="0%" stop-color="#FFD62E"/>
      <stop offset="100%" stop-color="#FF7E00"/>
    </linearGradient>
  </defs>
  <path fill="url(#a)" d="M255.153 37.938L134.897 252.676c-2.483 4.43-8.86 4.43-11.343 0L3.297 37.938c-2.806-5.008.805-11.162 6.571-11.162h238.714c5.766 0 9.378 6.154 6.571 11.162z"/>
  <path fill="url(#b)" d="M185.432 27.242L142.84 96.991c-2.856 4.669-9.52 4.669-12.377 0L87.871 27.242C85.402 23.21 88.307 18.14 92.971 18.14h87.79c4.664 0 7.569 5.07 5.1 9.102z"/>
</svg>
